<svg xmlns:xlink="http://www.w3.org/1999/xlink" xmlns="http://www.w3.org/2000/svg" width="380" height="64" viewBox="0 -8 475 80" fill="none">
<path d="M4.77637 63.0552C1.59212 63.0552 0 62.1759 0 60.4175C0 59.6333 0.190104 59.0036 0.570312 58.5283C1.25944 58.7184 1.96045 58.8135 2.67334 58.8135C3.38623 58.8135 3.99219 58.7897 4.49121 58.7422C4.99023 58.6947 5.45361 58.4927 5.88135 58.1362C6.76058 57.3283 7.30713 55.5342 7.521 52.7539L11.1924 14.8994C11.2399 14.3053 11.0379 13.842 10.5864 13.5093C10.1349 13.1766 9.5765 12.939 8.91113 12.7964C8.24577 12.6538 7.66357 12.535 7.16455 12.4399C6.68929 12.3449 6.27344 12.2023 5.91699 12.0122C5.18034 11.6558 4.81201 11.0498 4.81201 10.1943C4.81201 9.3151 4.97835 8.66162 5.31104 8.23389C5.76253 8.3527 6.1665 8.41211 6.52295 8.41211H17.0737C20.6144 8.41211 22.7887 9.27946 23.5967 11.0142L36.8564 42.1318L50.5439 10.8359C50.9954 9.79036 51.6727 9.125 52.5757 8.83984C53.4787 8.55469 54.6312 8.41211 56.0332 8.41211H62.9482C66.1562 8.41211 67.7603 9.2557 67.7603 10.9429C67.7603 11.8459 67.582 12.4993 67.2256 12.9033C66.2751 12.6419 65.4909 12.5112 64.873 12.5112C64.279 12.5112 63.7443 12.5588 63.269 12.6538C62.7938 12.7489 62.4136 12.9271 62.1284 13.1885C61.5343 13.6875 61.3086 14.6855 61.4512 16.1826L65.3008 55.1777C65.4671 56.8411 66.3582 57.8867 67.9741 58.3145C68.4256 58.4333 68.9009 58.5758 69.3999 58.7422L70.79 59.2056C71.6693 59.4907 72.2039 59.8709 72.394 60.3462C72.5841 60.7977 72.6792 61.2373 72.6792 61.665C72.6792 62.2591 72.501 62.7819 72.1445 63.2334C71.598 63.1146 71.0396 63.0552 70.4692 63.0552H54.2153C51.3162 63.0552 49.8667 62.1878 49.8667 60.4531C49.8667 60.168 49.9499 59.8115 50.1162 59.3838C50.2826 58.9323 50.4132 58.6471 50.5083 58.5283C51.2212 58.7184 51.8747 58.8135 52.4688 58.8135C53.0866 58.8135 53.7163 58.766 54.3579 58.6709C55.0233 58.5758 55.5817 58.3501 56.0332 57.9937C57.0075 57.1857 57.4233 55.653 57.2808 53.3955L54.9639 22.8125L54.6431 16.8599L38.2466 53.1816C37.9377 53.3717 37.4624 53.4668 36.8208 53.4668C36.1792 53.4668 35.5138 53.241 34.8247 52.7896C34.1593 52.3143 33.5534 51.7321 33.0068 51.043C32.1276 49.9261 31.284 48.5003 30.4761 46.7656L17.2163 15.6836L14.3291 54.5005C14.234 55.855 14.4242 56.7699 14.8994 57.2451C15.4935 57.8392 16.2777 58.2669 17.252 58.5283C18.2262 58.7897 18.9867 58.9917 19.5332 59.1343C20.0798 59.2531 20.555 59.4194 20.959 59.6333C21.8382 60.061 22.2778 60.7739 22.2778 61.772C22.2778 62.271 22.0877 62.7581 21.7075 63.2334C21.2798 63.1146 20.8758 63.0552 20.4956 63.0552H4.77637ZM77.7407 43.8784C77.7407 41.0031 78.0378 38.4486 78.6318 36.2148C79.2259 33.9811 80.022 31.985 81.02 30.2266C82.0418 28.4443 83.23 26.8879 84.5845 25.5571C85.9627 24.2264 87.436 23.1214 89.0044 22.2422C92.0936 20.4837 95.1353 19.6045 98.1294 19.6045C101.124 19.6045 103.524 20.1392 105.33 21.2085C107.136 22.2541 108.609 23.6561 109.75 25.4146C111.864 28.7651 112.922 33.2207 112.922 38.7812C112.922 40.8486 112.055 41.9061 110.32 41.9536L85.4399 42.4883C85.5825 47.6449 86.9132 51.4588 89.4321 53.9302C91.5708 56.0213 94.3392 57.0669 97.7373 57.0669C102.799 57.0669 106.91 56.0094 110.07 53.8945C110.284 53.8945 110.546 54.0728 110.854 54.4292C111.449 55.1421 111.746 55.7599 111.746 56.2827C111.746 57.4233 110.32 58.8848 107.468 60.667C104.189 62.7106 100.363 63.7324 95.9907 63.7324C90.2876 63.7324 85.8083 61.9146 82.5527 58.2788C79.3447 54.7144 77.7407 49.9142 77.7407 43.8784ZM85.6538 37.8901C92.4976 37.5575 98.7591 37.1178 104.438 36.5713C104.7 29.0146 102.086 25.2363 96.5967 25.2363C93.5312 25.2363 91.0243 26.4245 89.0757 28.8008C87.2935 30.987 86.1528 34.0168 85.6538 37.8901ZM127.108 63.0552C123.473 63.0552 121.655 62.2235 121.655 60.5601C121.655 59.6808 121.833 59.0155 122.189 58.564C122.76 58.7541 123.294 58.8491 123.793 58.8491C125.861 58.8491 126.93 57.6016 127.001 55.1064V10.4795C127.001 8.81608 126.835 7.75863 126.502 7.30713C125.956 6.54671 125.077 6.1665 123.865 6.1665C123.318 6.1665 122.784 6.22591 122.261 6.34473C121.762 6.43978 121.405 6.43978 121.191 6.34473C121.001 6.22591 120.847 6.07145 120.728 5.88135C120.253 5.09717 120.847 4.09912 122.51 2.88721C125.124 0.962402 127.702 0 130.245 0C132.954 0 134.475 1.46143 134.808 4.38428C134.903 5.26351 134.95 6.19027 134.95 7.16455V55.249C135.021 57.1025 135.699 58.2432 136.982 58.6709C137.362 58.7897 137.802 58.8966 138.301 58.9917C138.824 59.0868 139.299 59.2056 139.727 59.3481C140.154 59.467 140.487 59.6095 140.725 59.7759C141.129 60.0848 141.331 60.5838 141.331 61.2729C141.331 62.1047 141.14 62.7581 140.76 63.2334C140.285 63.1146 139.525 63.0552 138.479 63.0552H127.108ZM152.63 63.0552C148.994 63.0552 147.176 62.2235 147.176 60.5601C147.176 59.6808 147.354 59.0155 147.711 58.564C148.281 58.7541 148.816 58.8491 149.315 58.8491C151.382 58.8491 152.452 57.6016 152.523 55.1064V10.4795C152.523 8.81608 152.357 7.75863 152.024 7.30713C151.477 6.54671 150.598 6.1665 149.386 6.1665C148.84 6.1665 148.305 6.22591 147.782 6.34473C147.283 6.43978 146.927 6.43978 146.713 6.34473C146.523 6.22591 146.368 6.07145 146.25 5.88135C145.774 5.09717 146.368 4.09912 148.032 2.88721C150.646 0.962402 153.224 0 155.767 0C158.476 0 159.996 1.46143 160.329 4.38428C160.424 5.26351 160.472 6.19027 160.472 7.16455V55.249C160.543 57.1025 161.22 58.2432 162.503 58.6709C162.884 58.7897 163.323 58.8966 163.822 58.9917C164.345 59.0868 164.82 59.2056 165.248 59.3481C165.676 59.467 166.008 59.6095 166.246 59.7759C166.65 60.0848 166.852 60.5838 166.852 61.2729C166.852 62.1047 166.662 62.7581 166.282 63.2334C165.806 63.1146 165.046 63.0552 164 63.0552H152.63ZM171.593 43.3794C171.593 40.4803 171.878 37.8783 172.448 35.5732C173.019 33.2682 173.803 31.2365 174.801 29.478C175.799 27.7196 176.975 26.2225 178.33 24.9868C179.684 23.7274 181.134 22.7056 182.678 21.9214C185.696 20.3768 189.011 19.6045 192.623 19.6045C197.257 19.6045 201.19 21.2917 204.421 24.666C208.01 28.373 209.804 33.2682 209.804 39.3516C209.804 47.3359 207.629 53.55 203.281 57.9937C199.502 61.8195 194.976 63.7324 189.7 63.7324C184.187 63.7324 179.767 61.7957 176.44 57.9224C173.209 54.1916 171.593 49.3439 171.593 43.3794ZM191.803 57.9224C193.395 57.9224 194.821 57.554 196.081 56.8174C197.34 56.057 198.409 55.0233 199.289 53.7163C201.047 51.0073 201.926 47.4904 201.926 43.1655C201.926 38.4129 201 34.3732 199.146 31.0464C197.055 27.2205 194.049 25.3076 190.128 25.3076C186.967 25.3076 184.437 26.5195 182.536 28.9434C180.516 31.5098 179.506 35.098 179.506 39.708C179.506 45.4824 180.777 50.0449 183.32 53.3955C185.601 56.4134 188.429 57.9224 191.803 57.9224ZM229.23 61.3086L217.788 28.979C216.933 26.5552 216.184 25.3433 215.542 25.3433C215.257 25.3433 214.925 25.3789 214.544 25.4502C214.164 25.5215 213.855 25.3908 213.618 25.0581C213.38 24.7254 213.261 24.3096 213.261 23.8105C213.261 23.3115 213.463 22.8006 213.867 22.2778C214.271 21.755 214.782 21.3035 215.4 20.9233C216.778 20.0441 217.978 19.6045 219 19.6045C220.046 19.6045 220.818 19.6283 221.317 19.6758C221.816 19.7233 222.291 19.8896 222.743 20.1748C223.646 20.7689 224.406 22.1115 225.024 24.2026L234.185 55.2134C236.442 48.5597 237.903 44.1636 238.569 42.0249C240.921 34.0881 242.49 28.2186 243.274 24.4165C243.44 23.561 244.224 22.8363 245.626 22.2422C246.72 21.7907 247.646 21.5649 248.407 21.5649C249.167 21.5649 249.666 21.6243 249.904 21.7432C250.165 21.8382 250.355 22.0283 250.474 22.3135C250.759 22.8838 250.973 23.5729 251.116 24.3809L260.597 55.4629C262.379 51.1143 263.591 48.0607 264.233 46.3022L266.086 41.0981C268.059 35.4188 269.045 30.987 269.045 27.8027C269.045 25.5452 267.952 24.2858 265.766 24.0244C265.528 23.6442 265.409 23.2521 265.409 22.8481C265.409 22.4204 265.611 22.0046 266.015 21.6006C266.419 21.1729 266.942 20.8045 267.583 20.4956C268.867 19.9015 270.162 19.6045 271.469 19.6045C272.799 19.6045 273.821 19.6758 274.534 19.8184C275.247 19.9609 275.817 20.2104 276.245 20.5669C277.053 21.2798 277.457 22.3491 277.457 23.7749C277.457 25.1769 277.303 26.6027 276.994 28.0522C276.685 29.478 276.269 31.0464 275.746 32.7573C275.223 34.4683 274.617 36.2624 273.928 38.1396C271.338 45.0309 269.449 49.7598 268.261 52.3262L265.659 57.7441C265.136 58.7897 264.732 59.5501 264.447 60.0254L263.556 61.4155C262.558 62.9601 261.381 63.7324 260.027 63.7324C258.554 63.7324 257.342 63.3403 256.391 62.5562C256.011 62.2235 255.738 61.8076 255.571 61.3086L246.731 35.7871C244.355 43.2249 242.846 47.8825 242.205 49.7598C240.256 55.2253 239.08 58.3739 238.676 59.2056C238.272 60.0135 237.915 60.6789 237.606 61.2017C237.298 61.7007 236.953 62.1284 236.573 62.4849C235.717 63.3166 234.779 63.7324 233.757 63.7324C232.331 63.7324 231.107 63.3166 230.085 62.4849C229.705 62.1759 229.42 61.7839 229.23 61.3086ZM296.099 38.7456L296.063 48.1201C296.063 52.041 296.265 54.4054 296.669 55.2134C297.073 55.9976 297.549 56.4728 298.095 56.6392C298.642 56.7817 299.343 56.853 300.198 56.853C301.054 56.853 301.826 56.7936 302.515 56.6748C303.228 56.5322 303.893 56.354 304.511 56.1401C305.129 55.9263 305.723 55.6886 306.293 55.4272L308.04 54.6787C308.444 54.5361 308.896 54.952 309.395 55.9263C309.537 56.1877 309.608 56.4966 309.608 56.853C309.608 57.1857 309.466 57.6253 309.181 58.1719C308.896 58.7184 308.337 59.3481 307.505 60.061C306.697 60.7502 305.747 61.368 304.654 61.9146C302.278 63.1265 300.139 63.7324 298.238 63.7324C296.361 63.7324 294.828 63.6255 293.64 63.4116C292.451 63.1978 291.442 62.77 290.61 62.1284C288.899 60.7977 288.043 58.362 288.043 54.8213V26.769H284.515C283.778 26.769 283.243 26.5314 282.911 26.0562C282.34 25.3195 282.055 24.7017 282.055 24.2026C282.055 23.3709 282.257 22.9076 282.661 22.8125C286.439 22.1709 289.113 19.3669 290.681 14.4004C291.133 12.9033 291.489 11.133 291.75 9.08936C292.891 8.89925 293.747 8.8042 294.317 8.8042C294.911 8.8042 295.422 9.10124 295.85 9.69531C296.277 10.2894 296.479 10.9785 296.456 11.7627C296.456 12.5469 296.444 13.2835 296.42 13.9727C296.396 14.6618 296.372 15.4103 296.349 16.2183L296.206 21.2085H308.539C308.848 21.755 309.002 22.3372 309.002 22.9551V24.0601C309.002 25.0581 308.468 25.8779 307.398 26.5195C306.329 27.1374 305.141 27.4463 303.834 27.4463C302.551 27.4463 301.624 27.4344 301.054 27.4106C300.507 27.3631 299.972 27.3156 299.45 27.2681L297.881 27.0542C297.335 27.0067 296.753 26.9591 296.135 26.9116V27.3037L296.099 38.7456ZM315.49 43.8784C315.49 41.0031 315.787 38.4486 316.381 36.2148C316.975 33.9811 317.771 31.985 318.769 30.2266C319.791 28.4443 320.979 26.8879 322.333 25.5571C323.712 24.2264 325.185 23.1214 326.753 22.2422C329.843 20.4837 332.884 19.6045 335.878 19.6045C338.873 19.6045 341.273 20.1392 343.079 21.2085C344.885 22.2541 346.358 23.6561 347.499 25.4146C349.613 28.7651 350.671 33.2207 350.671 38.7812C350.671 40.8486 349.804 41.9061 348.069 41.9536L323.189 42.4883C323.332 47.6449 324.662 51.4588 327.181 53.9302C329.32 56.0213 332.088 57.0669 335.486 57.0669C340.548 57.0669 344.659 56.0094 347.819 53.8945C348.033 53.8945 348.295 54.0728 348.604 54.4292C349.198 55.1421 349.495 55.7599 349.495 56.2827C349.495 57.4233 348.069 58.8848 345.217 60.667C341.938 62.7106 338.112 63.7324 333.74 63.7324C328.037 63.7324 323.557 61.9146 320.302 58.2788C317.094 54.7144 315.49 49.9142 315.49 43.8784ZM323.403 37.8901C330.247 37.5575 336.508 37.1178 342.188 36.5713C342.449 29.0146 339.835 25.2363 334.346 25.2363C331.28 25.2363 328.773 26.4245 326.825 28.8008C325.042 30.987 323.902 34.0168 323.403 37.8901ZM364.857 63.0552C361.222 63.0552 359.404 62.2235 359.404 60.5601C359.404 59.6808 359.582 59.0155 359.938 58.564C360.509 58.7541 361.043 58.8491 361.542 58.8491C363.61 58.8491 364.679 57.6016 364.75 55.1064V10.4795C364.75 8.81608 364.584 7.75863 364.251 7.30713C363.705 6.54671 362.826 6.1665 361.614 6.1665C361.067 6.1665 360.533 6.22591 360.01 6.34473C359.511 6.43978 359.154 6.43978 358.94 6.34473C358.75 6.22591 358.596 6.07145 358.477 5.88135C358.002 5.09717 358.596 4.09912 360.259 2.88721C362.873 0.962402 365.451 0 367.994 0C370.703 0 372.224 1.46143 372.557 4.38428C372.652 5.26351 372.699 6.19027 372.699 7.16455V55.249C372.771 57.1025 373.448 58.2432 374.731 58.6709C375.111 58.7897 375.551 58.8966 376.05 58.9917C376.573 59.0868 377.048 59.2056 377.476 59.3481C377.903 59.467 378.236 59.6095 378.474 59.7759C378.878 60.0848 379.08 60.5838 379.08 61.2729C379.08 62.1047 378.889 62.7581 378.509 63.2334C378.034 63.1146 377.274 63.0552 376.228 63.0552H364.857Z" fill="#262626"/>
</svg>